PathFileType	4	(X/Y/Z)	Patient4_TMGait_0pt7_02_left_33.trc.trc
DataRate	CameraRate	NumFrames	NumMarkers	Units	OrigDataRate	OrigDataStartFrame	OrigNumFrames
86.419753086420	86.419753086420	4	33	mm	86.419753086420	89	       141
Frame#	Time	Sacral			L.Shoulder			Chest			R.Shoulder			Neck			R.ASIS			L.ASIS			R.Thigh.Superior			R.Thigh.Lateral			R.Thigh.Inferior			R.Patella			L.Thigh.Superior			L.Thigh.Lateral			L.Thigh.Inferior			L.Patella			L.Shank.Superior			L.Shank.Lateral			L.Shank.Inferior			R.Shank.Superior			R.Shank.Lateral			R.Shank.Inferior			R.Heel			R.Midfoot.Superior			R.Midfoot.Lateral			R.Toe			L.Heel			L.Midfoot.Lateral			L.Midfoot.Superior			L.Toe			L.Elbow			L.Wrist			R.Elbow			R.Wrist			
		X1	Y1	Z1	X2	Y2	Z2	X3	Y3	Z3	X4	Y4	Z4	X5	Y5	Z5	X6	Y6	Z6	X7	Y7	Z7	X8	Y8	Z8	X9	Y9	Z9	X10	Y10	Z10	X11	Y11	Z11	X12	Y12	Z12	X13	Y13	Z13	X14	Y14	Z14	X15	Y15	Z15	X16	Y16	Z16	X17	Y17	Z17	X18	Y18	Z18	X19	Y19	Z19	X20	Y20	Z20	X21	Y21	Z21	X22	Y22	Z22	X23	Y23	Z23	X24	Y24	Z24	X25	Y25	Z25	X26	Y26	Z26	X27	Y27	Z27	X28	Y28	Z28	X29	Y29	Z29	X30	Y30	Z30	X31	Y31	Z31	X32	Y32	Z32	X33	Y33	Z33	

89	38.728285714286	886.020176157349	1007.283072732692	490.415599057184	1092.851169488725	1422.132784074383	297.989656965349	1195.946009870485	1343.778853776477	456.646361718183	1122.945096560070	1427.633440097150	630.746764018415	1104.206839027572	1482.032925549358	451.141602914451	1114.485154582790	928.393503099150	601.870500854964	1089.404491989563	946.824483312849	328.555157934056	1178.128224902533	747.591487292781	567.158205834306	1115.072968272378	630.407893058606	629.338049003150	1197.280937817231	588.317477804826	546.240703543113	1213.020143026538	496.441781248171	553.218812499920	1121.519181883172	729.648997613449	347.612031997756	1025.736449349073	622.683631447768	281.587019600815	1107.684654942268	530.837557718965	335.628499336094	1094.612611561301	446.863165496869	332.352239543592	1024.204407042743	393.732676072112	325.907239061980	882.741581397119	356.104120554714	276.147971592361	863.614342656408	228.164149745447	331.114577616834	1182.158061487318	406.738191925763	562.799067546458	1114.123825060313	304.253923136975	629.640126693648	1151.984600764457	208.036402899384	566.524111569156	1016.224781217718	44.472611266468	547.229663283597	1189.619402527119	98.122142464732	574.659794753177	1102.729691910161	37.916896505459	617.129965957043	1310.642298165173	42.131718757608	597.430405284618	670.134345355405	166.965774753840	364.235265749591	729.606995425250	118.488151353527	288.095597524518	832.604462677418	126.791686135027	312.279369092678	910.989167499145	30.210148869957	292.777863187541	1081.120876989118	1083.832696907055	156.831794621018	1329.246652333276	1023.445153644992	185.968203087848	981.568896290904	1115.697920120515	753.618655702518	944.295250020967	855.522621003484	749.812917596259	
90	38.739857142857	885.608870448117	1009.026392674482	493.527371748286	1092.796628978115	1423.108560212242	299.989957162543	1196.485659851773	1344.485746866318	458.123470222941	1124.734748662192	1428.583079204729	632.568844337370	1105.138122082832	1483.052148930158	453.134609503127	1114.135612427562	929.672520739473	604.159767064221	1088.057581310576	947.372474813808	331.016658159765	1175.543081422537	746.748740844144	570.626017477724	1110.552871040297	630.631191118703	631.805882837107	1192.148402400846	587.703269484101	548.479565399705	1206.704000030376	495.863976634915	555.258749926887	1125.802241694363	732.942733836005	350.745132048561	1034.370294181544	623.621038531172	283.741788708469	1118.703885917572	533.632636376864	338.460232638880	1106.708886838205	448.459714515358	334.656228136883	1034.686675988767	395.587163141678	327.804984327992	892.014656227323	362.591038198758	277.819679322900	869.153086350330	234.920581498427	332.010872772078	1175.382551599960	406.566085394362	564.591171098819	1106.795276462968	304.129924373503	630.793417047844	1144.499218619394	208.021719658263	567.383596484239	1008.253003838642	44.619687259401	547.322734125498	1181.680266158070	97.978675505985	574.957212168334	1094.721202295446	37.909892321115	617.183873382066	1302.639644696186	41.756803439235	597.696932561792	674.028608138756	182.905396355092	364.817852539581	730.760743091567	131.057696526407	288.590096003509	834.302802173046	132.985257936411	312.896309983788	906.097066872767	29.501829974024	293.024453535616	1074.343855559719	1083.067351823489	162.623053323835	1319.632497674290	1008.166744269647	187.697683152890	986.995742674991	1114.136198513041	755.222682354878	958.137412027505	852.862161814481	749.200432030145	
91	38.751428571429	885.022295916745	1010.663816225690	496.446354909864	1092.402803733861	1423.927792189465	301.802895318114	1196.795058550996	1345.096464771061	459.385578087052	1126.367711591797	1429.442232498646	634.207586754767	1105.813411883087	1483.972512721962	454.923142429612	1113.577912365519	930.825840265212	606.326613727596	1086.844154838351	948.102188939091	333.290846273419	1172.771293804623	745.974948577066	573.820480159735	1106.024680068809	630.896735605898	634.163120497902	1186.984563899714	587.146374494472	550.611734823002	1200.355049957384	495.353614549263	557.255266092486	1129.868560484137	736.487444154590	353.997144891829	1042.949019361969	624.963450592046	285.864141748014	1129.475662112425	536.970595205512	341.474719838704	1118.773118562247	450.655278296123	337.229601850915	1045.360211632253	397.856577996064	329.888192747962	901.771755825003	369.067856970794	279.528883451627	875.449890451218	241.763324897819	333.080979741670	1168.610950770682	406.417672125374	566.326048889619	1099.458579588855	304.041229230267	631.904442893160	1137.023070390106	208.026378725563	568.217694399545	1000.253619313930	44.817994187776	547.400580205625	1173.746531983560	97.833227461225	575.208101825762	1086.682808930551	37.922468254080	617.222018439137	1294.605718657570	41.351553040004	597.931640780295	679.159230918042	198.097214231496	365.511082934540	733.329976284659	143.378382997519	289.172067335113	837.119716011523	139.525609014756	313.655991661049	902.722873897751	29.438181704192	293.282123716876	1067.863790539791	1082.270752026673	168.267652769488	1308.989466671514	991.965230175999	189.323452473149	992.606782396241	1112.493207136040	756.871459723819	973.207941975588	850.328276721771	748.738652098955	
92	38.763000000000	884.270720428888	1012.176144758541	499.175579863850	1091.698066193104	1424.590904671308	303.429191457671	1196.864470854013	1345.615312265426	460.456047651751	1127.802586272009	1430.228746990748	635.666483707214	1106.237952963412	1484.801995979130	456.498960323924	1112.838965393016	931.865839755333	608.393801544752	1085.730400162062	948.979593034768	335.413729717680	1169.918513806514	745.314788438744	576.709562662837	1101.550615924716	631.197803059730	636.369849640406	1181.891175199866	586.652389965071	552.630056664262	1194.075418104487	494.908986124059	559.156902249151	1133.634243648051	740.273008170055	357.344513029627	1051.350884713291	626.734574085619	287.925541164981	1139.901294879029	540.848859972805	344.579298016787	1130.717256356292	453.456452061566	339.926462270010	1056.143768860551	400.540019336238	332.058742909382	911.887247252420	375.428318187280	281.255566437793	882.503419708883	248.525837031058	334.277188324495	1161.930175975778	406.291941657994	567.959113048675	1092.192957221082	304.004418047850	632.953854132363	1129.593138029344	208.054044568163	569.005233946807	992.229635606438	45.077694806345	547.473903745411	1165.815812046276	97.702257058277	575.419937822662	1078.619713790088	37.969401314049	617.254844929902	1286.544467662473	40.945967489811	598.139301803037	685.451496592939	212.030066344908	366.315244656849	737.372902376477	155.015185731749	289.838551630072	841.182929994317	146.219171165407	314.514284657700	901.287612019557	30.198546733270	293.545293272539	1061.730493481353	1081.417223655586	173.744979220244	1297.189518197836	975.011509072790	190.846852830061	998.448904846156	1110.749140086538	758.512977991990	989.479842390130	848.020054239228	748.364721715718	
